<svg width="25" height="18" viewBox="0 0 25 18" fill="none" xmlns="http://www.w3.org/2000/svg">
<path d="M20.5417 0C21.5031 0 22.4251 0.355579 23.1049 0.988515C23.7847 1.62145 24.1667 2.47989 24.1667 3.375V14.625C24.1667 15.5201 23.7847 16.3786 23.1049 17.0115C22.4251 17.6444 21.5031 18 20.5417 18H3.625C2.66359 18 1.74156 17.6444 1.06174 17.0115C0.381919 16.3786 0 15.5201 0 14.625V3.375C0 2.47989 0.381919 1.62145 1.06174 0.988515C1.74156 0.355579 2.66359 0 3.625 0H20.5417ZM21.75 6.75H2.41667V14.625C2.41671 14.9005 2.52536 15.1665 2.72203 15.3724C2.9187 15.5783 3.1897 15.7099 3.48362 15.7421L3.625 15.75H20.5417C20.8376 15.75 21.1233 15.6488 21.3444 15.4657C21.5656 15.2826 21.7069 15.0303 21.7415 14.7566L21.75 14.625V6.75ZM18.125 10.125C18.433 10.1253 18.7292 10.2351 18.9532 10.432C19.1771 10.6288 19.3119 10.8978 19.3299 11.1841C19.348 11.4703 19.2479 11.7522 19.0503 11.9721C18.8526 12.1919 18.5722 12.3333 18.2664 12.3671L18.125 12.375H14.5C14.192 12.3747 13.8958 12.2649 13.6718 12.068C13.4479 11.8712 13.3131 11.6022 13.2951 11.3159C13.277 11.0297 13.3771 10.7478 13.5747 10.5279C13.7724 10.3081 14.0528 10.1667 14.3586 10.1329L14.5 10.125H18.125ZM20.5417 2.25H3.625C3.30453 2.25 2.99719 2.36853 2.77058 2.5795C2.54397 2.79048 2.41667 3.07663 2.41667 3.375V4.5H21.75V3.375C21.75 3.07663 21.6227 2.79048 21.3961 2.5795C21.1695 2.36853 20.8621 2.25 20.5417 2.25Z" fill="white"/>
</svg>
