<svg width="16" height="17" viewBox="0 0 16 17" fill="none" xmlns="http://www.w3.org/2000/svg">
<path d="M8.8 8.64L10.6 10.44C10.7467 10.5867 10.82 10.7701 10.82 10.9904C10.82 11.2101 10.7467 11.4 10.6 11.56C10.44 11.72 10.2501 11.8 10.0304 11.8C9.81013 11.8 9.62 11.72 9.46 11.56L7.76 9.86C7.57333 9.67333 7.43333 9.46667 7.34 9.24C7.24667 9.01333 7.2 8.76667 7.2 8.5V6.1C7.2 5.87333 7.2768 5.6832 7.4304 5.5296C7.58347 5.37653 7.77333 5.3 8 5.3C8.22667 5.3 8.4168 5.37653 8.5704 5.5296C8.72347 5.6832 8.8 5.87333 8.8 6.1V8.64ZM8 2.1C8.22667 2.1 8.4168 2.17653 8.5704 2.3296C8.72347 2.4832 8.8 2.67333 8.8 2.9C8.8 3.12667 8.72347 3.3168 8.5704 3.4704C8.4168 3.62347 8.22667 3.7 8 3.7C7.77333 3.7 7.58347 3.62347 7.4304 3.4704C7.2768 3.3168 7.2 3.12667 7.2 2.9C7.2 2.67333 7.2768 2.4832 7.4304 2.3296C7.58347 2.17653 7.77333 2.1 8 2.1ZM14.4 8.5C14.4 8.72667 14.3232 8.91653 14.1696 9.0696C14.0165 9.2232 13.8267 9.3 13.6 9.3C13.3733 9.3 13.1835 9.2232 13.0304 9.0696C12.8768 8.91653 12.8 8.72667 12.8 8.5C12.8 8.27333 12.8768 8.0832 13.0304 7.9296C13.1835 7.77653 13.3733 7.7 13.6 7.7C13.8267 7.7 14.0165 7.77653 14.1696 7.9296C14.3232 8.0832 14.4 8.27333 14.4 8.5ZM8 13.3C8.22667 13.3 8.4168 13.3768 8.5704 13.5304C8.72347 13.6835 8.8 13.8733 8.8 14.1C8.8 14.3267 8.72347 14.5165 8.5704 14.6696C8.4168 14.8232 8.22667 14.9 8 14.9C7.77333 14.9 7.58347 14.8232 7.4304 14.6696C7.2768 14.5165 7.2 14.3267 7.2 14.1C7.2 13.8733 7.2768 13.6835 7.4304 13.5304C7.58347 13.3768 7.77333 13.3 8 13.3ZM3.2 8.5C3.2 8.72667 3.12347 8.91653 2.9704 9.0696C2.8168 9.2232 2.62667 9.3 2.4 9.3C2.17333 9.3 1.9832 9.2232 1.8296 9.0696C1.67653 8.91653 1.6 8.72667 1.6 8.5C1.6 8.27333 1.67653 8.0832 1.8296 7.9296C1.9832 7.77653 2.17333 7.7 2.4 7.7C2.62667 7.7 2.8168 7.77653 2.9704 7.9296C3.12347 8.0832 3.2 8.27333 3.2 8.5ZM8 16.5C6.89333 16.5 5.85333 16.2899 4.88 15.8696C3.90667 15.4499 3.06 14.88 2.34 14.16C1.62 13.44 1.05013 12.5933 0.6304 11.62C0.210133 10.6467 0 9.60667 0 8.5C0 7.39333 0.210133 6.35333 0.6304 5.38C1.05013 4.40667 1.62 3.56 2.34 2.84C3.06 2.12 3.90667 1.54987 4.88 1.1296C5.85333 0.709867 6.89333 0.5 8 0.5C9.10667 0.5 10.1467 0.709867 11.12 1.1296C12.0933 1.54987 12.94 2.12 13.66 2.84C14.38 3.56 14.9499 4.40667 15.3696 5.38C15.7899 6.35333 16 7.39333 16 8.5C16 9.60667 15.7899 10.6467 15.3696 11.62C14.9499 12.5933 14.38 13.44 13.66 14.16C12.94 14.88 12.0933 15.4499 11.12 15.8696C10.1467 16.2899 9.10667 16.5 8 16.5ZM8 14.9C9.78667 14.9 11.3 14.28 12.54 13.04C13.78 11.8 14.4 10.2867 14.4 8.5C14.4 6.71333 13.78 5.2 12.54 3.96C11.3 2.72 9.78667 2.1 8 2.1C6.21333 2.1 4.7 2.72 3.46 3.96C2.22 5.2 1.6 6.71333 1.6 8.5C1.6 10.2867 2.22 11.8 3.46 13.04C4.7 14.28 6.21333 14.9 8 14.9Z" fill="#8DA0B3"/>
</svg>
