<svg width="20" height="21" viewBox="0 0 20 21" fill="none" xmlns="http://www.w3.org/2000/svg">
<path d="M10 1.75C5.16986 1.75 1.25 5.66986 1.25 10.5C1.25 15.3301 5.16986 19.25 10 19.25C14.8301 19.25 18.75 15.3301 18.75 10.5C18.75 5.66986 14.8301 1.75 10 1.75ZM7.50554 14.875C6.34522 14.875 5.23242 14.4141 4.41195 13.5936C3.59148 12.7731 3.13054 11.6603 3.13054 10.5C3.13054 9.33968 3.59148 8.22688 4.41195 7.40641C5.23242 6.58594 6.34522 6.125 7.50554 6.125C8.60988 6.125 9.62601 6.5131 10.434 7.26462L9.24849 8.41482C8.78276 7.95968 8.14415 7.74093 7.50554 7.74093C5.99194 7.74093 4.78175 8.99345 4.78175 10.4965C4.78175 11.9995 5.98841 13.252 7.50554 13.252C8.65575 13.252 9.79536 12.5781 9.97883 11.3715H7.50554V9.86845H11.63C11.6756 10.1092 11.698 10.3538 11.6971 10.5988C11.6971 13.0968 10.0212 14.875 7.50554 14.875ZM15.6275 11.128V12.3805H14.375V11.128H13.1225V9.8755H14.375V8.62298H15.6275V9.8755H16.8695V11.128H15.6275Z" fill="white"/>
</svg>
