<svg width="37" height="62" viewBox="0 0 37 62" fill="none" xmlns="http://www.w3.org/2000/svg">
<path d="M1.64095 60.3774C2.16081 60.8918 2.77831 61.2998 3.45809 61.5783C4.13787 61.8567 4.8666 62 5.60254 62C6.33849 62 7.06722 61.8567 7.747 61.5783C8.42678 61.2998 9.04428 60.8918 9.56414 60.3774L35.3567 34.9104C35.8776 34.3971 36.2909 33.7874 36.5729 33.1162C36.8549 32.445 37 31.7255 37 30.9988C37 30.2722 36.8548 29.5526 36.5729 28.8814C36.2909 28.2102 35.8776 27.6005 35.3567 27.0872L9.56414 1.62024C9.04389 1.10657 8.42627 0.69909 7.74654 0.421089C7.06681 0.143089 6.33828 5.87261e-06 5.60254 5.92261e-06C4.8668 5.97261e-06 4.13827 0.143089 3.45854 0.42109C2.77881 0.69909 2.16119 1.10657 1.64094 1.62024C1.1207 2.13392 0.70802 2.74374 0.426466 3.41489C0.144912 4.08605 -4.23436e-06 4.80539 -4.15634e-06 5.53184C-4.07833e-06 6.25829 0.144912 6.97762 0.426466 7.64878C0.70802 8.31993 1.1207 8.92975 1.64094 9.44343L23.4438 31.0266L1.64095 52.5542C-0.550576 54.7181 -0.494383 58.269 1.64095 60.3774Z" fill="white"/>
</svg>
