<svg width="14" height="16" viewBox="0 0 14 16" fill="none" xmlns="http://www.w3.org/2000/svg">
<path d="M6.91663 8.15287C7.3635 8.15287 7.74619 7.99307 8.06469 7.67348C8.38265 7.35443 8.54163 6.9707 8.54163 6.52229C8.54163 6.07389 8.38265 5.68989 8.06469 5.37029C7.74619 5.05124 7.3635 4.89172 6.91663 4.89172C6.46975 4.89172 6.08733 5.05124 5.76938 5.37029C5.45088 5.68989 5.29163 6.07389 5.29163 6.52229C5.29163 6.9707 5.45088 7.35443 5.76938 7.67348C6.08733 7.99307 6.46975 8.15287 6.91663 8.15287ZM6.91663 16C6.80829 16 6.69996 15.9796 6.59163 15.9389C6.48329 15.8981 6.3885 15.8437 6.30725 15.7758C4.33017 14.0229 2.85413 12.3959 1.87913 10.8947C0.904126 9.39292 0.416626 7.98981 0.416626 6.68535C0.416626 4.64713 1.07015 3.02335 2.37719 1.81401C3.68369 0.604671 5.19683 0 6.91663 0C8.63642 0 10.1496 0.604671 11.4561 1.81401C12.7631 3.02335 13.4166 4.64713 13.4166 6.68535C13.4166 7.98981 12.9291 9.39292 11.9541 10.8947C10.9791 12.3959 9.50308 14.0229 7.526 15.7758C7.44475 15.8437 7.34996 15.8981 7.24163 15.9389C7.13329 15.9796 7.02496 16 6.91663 16Z" fill="white"/>
</svg>
