<svg width="20" height="21" viewBox="0 0 20 21" fill="none" xmlns="http://www.w3.org/2000/svg">
<path d="M3.33366 17.1654C2.87533 17.1654 2.4831 17.0023 2.15699 16.6762C1.83033 16.3495 1.66699 15.957 1.66699 15.4987V5.4987C1.66699 5.04036 1.83033 4.64814 2.15699 4.32203C2.4831 3.99536 2.87533 3.83203 3.33366 3.83203H16.667C17.1253 3.83203 17.5178 3.99536 17.8445 4.32203C18.1706 4.64814 18.3337 5.04036 18.3337 5.4987V15.4987C18.3337 15.957 18.1706 16.3495 17.8445 16.6762C17.5178 17.0023 17.1253 17.1654 16.667 17.1654H3.33366ZM10.0003 11.1862C10.0698 11.1862 10.1425 11.1756 10.2187 11.1545C10.2953 11.134 10.3684 11.1029 10.4378 11.0612L16.3337 7.3737C16.4448 7.30425 16.5281 7.21759 16.5837 7.1137C16.6392 7.00925 16.667 6.89453 16.667 6.76953C16.667 6.49175 16.5489 6.28342 16.3128 6.14453C16.0767 6.00564 15.8337 6.01259 15.5837 6.16536L10.0003 9.66537L4.41699 6.16536C4.16699 6.01259 3.92394 6.00898 3.68783 6.15453C3.45171 6.30064 3.33366 6.50564 3.33366 6.76953C3.33366 6.90842 3.36144 7.02981 3.41699 7.1337C3.47255 7.23814 3.55588 7.31814 3.66699 7.3737L9.56283 11.0612C9.63227 11.1029 9.70533 11.134 9.78199 11.1545C9.8581 11.1756 9.93088 11.1862 10.0003 11.1862Z" fill="white"/>
</svg>
