<svg width="22" height="18" viewBox="0 0 22 18" fill="none" xmlns="http://www.w3.org/2000/svg">
<path d="M11 7.92004H12.5714V9.36004H11V7.92004ZM14.1429 7.92004H15.7143V9.36004H14.1429V7.92004ZM17.2857 7.92004H18.8571V9.36004H17.2857V7.92004ZM11 10.8H12.5714V12.24H11V10.8ZM14.1429 10.8H15.7143V12.24H14.1429V10.8ZM17.2857 10.8H18.8571V12.24H17.2857V10.8ZM11 13.68H12.5714V15.12H11V13.68ZM14.1429 13.68H15.7143V15.12H14.1429V13.68ZM17.2857 13.68H18.8571V15.12H17.2857V13.68ZM11 5.04004H18.8571V6.48004H11V5.04004Z" fill="white"/>
<path d="M20.4286 2.16H9.42857V1.44C9.42815 1.05821 9.26246 0.692157 8.96785 0.422187C8.67324 0.152217 8.27378 0.000381223 7.85714 0H4.71429C4.29764 0.000381223 3.89819 0.152217 3.60358 0.422187C3.30897 0.692157 3.14327 1.05821 3.14286 1.44V2.16H1.57143C1.15479 2.16038 0.75533 2.31222 0.46072 2.58219C0.16611 2.85216 0.000416017 3.21821 0 3.6V16.56C0.000416017 16.9418 0.16611 17.3078 0.46072 17.5778C0.75533 17.8478 1.15479 17.9996 1.57143 18H20.4286C20.8452 17.9996 21.2447 17.8478 21.5393 17.5778C21.8339 17.3078 21.9996 16.9418 22 16.56V3.6C21.9996 3.21821 21.8339 2.85216 21.5393 2.58219C21.2447 2.31222 20.8452 2.16038 20.4286 2.16ZM4.71429 1.44H7.85714V13.68H4.71429V1.44ZM20.4286 16.56H1.57143V3.6H3.14286V13.68C3.14327 14.0618 3.30897 14.4278 3.60358 14.6978C3.89819 14.9678 4.29764 15.1196 4.71429 15.12H7.85714C8.27378 15.1196 8.67324 14.9678 8.96785 14.6978C9.26246 14.4278 9.42815 14.0618 9.42857 13.68V3.6H20.4286V16.56Z" fill="white"/>
</svg>
