<svg width="37" height="62" viewBox="0 0 37 62" fill="none" xmlns="http://www.w3.org/2000/svg">
<path d="M35.3591 1.62259C34.8392 1.10823 34.2217 0.700165 33.5419 0.42174C32.8621 0.143315 32.1334 0 31.3975 0C30.6615 0 29.9328 0.143315 29.253 0.42174C28.5732 0.700165 27.9557 1.10823 27.4359 1.62259L1.64333 27.0896C1.1224 27.6029 0.709115 28.2126 0.427131 28.8838C0.145147 29.555 0 30.2745 0 31.0012C0 31.7278 0.145147 32.4474 0.427131 33.1186C0.709115 33.7898 1.1224 34.3995 1.64333 34.9128L27.4359 60.3798C27.9561 60.8934 28.5737 61.3009 29.2535 61.5789C29.9332 61.8569 30.6617 62 31.3975 62C32.1332 62 32.8617 61.8569 33.5415 61.5789C34.2212 61.3009 34.8388 60.8934 35.3591 60.3798C35.8793 59.8661 36.292 59.2563 36.5735 58.5851C36.8551 57.914 37 57.1946 37 56.4682C37 55.7417 36.8551 55.0224 36.5735 54.3512C36.292 53.6801 35.8793 53.0702 35.3591 52.5566L13.5562 30.9734L35.3591 9.44578C37.5506 7.28192 37.4944 3.73097 35.3591 1.62259Z" fill="white"/>
</svg>
