<svg width="16" height="15" viewBox="0 0 16 15" fill="none" xmlns="http://www.w3.org/2000/svg">
<path d="M14.625 15C14.7639 15 14.9097 14.9967 15.0625 14.99C15.2153 14.9828 15.3611 14.9722 15.5 14.9583V10.0833L11.3333 9.25L8.91667 11.6667C7.86111 11.0278 6.89222 10.2708 6.01 9.39583C5.12833 8.52083 4.39583 7.58333 3.8125 6.58333L6.1875 4.1875L5.41667 0H0.541666C0.513888 0.138889 0.5 0.284722 0.5 0.4375V0.875C0.5 2.66667 0.899445 4.41306 1.69833 6.11417C2.49667 7.81583 3.55222 9.32639 4.865 10.6458C6.17722 11.9653 7.68389 13.0208 9.385 13.8125C11.0867 14.6042 12.8333 15 14.625 15Z" fill="white"/>
</svg>
