<svg width="20" height="21" viewBox="0 0 20 21" fill="none" xmlns="http://www.w3.org/2000/svg">
<g clip-path="url(#clip0_11_177)">
<path d="M19.869 6.31211C19.869 4.5543 18.576 3.14023 16.9784 3.14023C14.8143 3.03906 12.6073 3 10.3518 3H9.64868C7.39868 3 5.18774 3.03906 3.02368 3.14062C1.42993 3.14062 0.136956 4.5625 0.136956 6.32031C0.0393 7.71055 -0.00210621 9.10117 0.000237542 10.4918C-0.00366871 11.8824 0.0406021 13.2743 0.13305 14.6676C0.13305 16.4254 1.42602 17.8512 3.01977 17.8512C5.29321 17.9566 7.62524 18.0035 9.99633 17.9996C12.3713 18.0074 14.6969 17.9579 16.9729 17.8512C18.5706 17.8512 19.8635 16.4254 19.8635 14.6676C19.9573 13.273 20.0002 11.8824 19.9963 10.4879C20.0052 9.09727 19.9627 7.70534 19.869 6.31211ZM8.08618 14.3238V6.64805L13.7502 10.484L8.08618 14.3238Z" fill="white"/>
</g>
<defs>
<clipPath id="clip0_11_177">
<rect width="20" height="20" fill="white" transform="translate(0 0.5)"/>
</clipPath>
</defs>
</svg>
