<svg width="88" height="88" viewBox="0 0 88 88" fill="none" xmlns="http://www.w3.org/2000/svg">
<path d="M18.4585 33.125C19.4199 33.125 20.3419 33.5069 21.0218 34.1867C21.7016 34.8666 22.0835 35.7886 22.0835 36.75C27.7789 36.7416 33.3101 38.6577 37.7797 42.1875H45.646C50.4781 42.1875 54.8172 44.29 57.8042 47.625H69.2085C72.6351 47.6241 75.9917 48.5944 78.8892 50.4237C81.7867 52.2529 84.1063 54.8659 85.579 57.9599C77.0059 69.2735 63.1258 76.625 47.4585 76.625C37.3447 76.625 28.7897 74.4391 21.866 70.6147C21.6124 71.3146 21.1491 71.9192 20.5393 72.346C19.9295 72.7729 19.2029 73.0013 18.4585 73H7.5835C6.62209 73 5.70005 72.6181 5.02023 71.9383C4.34041 71.2584 3.9585 70.3364 3.9585 69.375V36.75C3.9585 35.7886 4.34041 34.8666 5.02023 34.1867C5.70005 33.5069 6.62209 33.125 7.5835 33.125H18.4585ZM22.0871 44L22.0835 62.2047L22.2466 62.3208C28.7535 66.8883 37.2287 69.375 47.4585 69.375C58.348 69.375 68.4799 65.1845 75.8604 58.0287L76.3425 57.5466L75.9075 57.1841C74.1958 55.8435 72.1209 55.0479 69.9516 54.9004L69.2085 54.875H61.5561C61.8171 56.0422 61.9585 57.253 61.9585 58.5V62.125H29.3335V54.875L53.9472 54.8714L53.824 54.5886C53.1293 53.137 52.0607 51.8964 50.7279 50.9943C49.3952 50.0922 47.8464 49.5611 46.2405 49.4556L45.646 49.4375H35.0247C33.3403 47.7146 31.3282 46.346 29.107 45.4122C26.8858 44.4784 24.5003 43.9983 22.0907 44H22.0871ZM14.8335 40.375H11.2085V65.75H14.8335V40.375ZM65.5835 18.625C68.4677 18.625 71.2338 19.7708 73.2733 21.8102C75.3127 23.8497 76.4585 26.6158 76.4585 29.5C76.4585 32.3842 75.3127 35.1503 73.2733 37.1898C71.2338 39.2292 68.4677 40.375 65.5835 40.375C62.6993 40.375 59.9332 39.2292 57.8937 37.1898C55.8543 35.1503 54.7085 32.3842 54.7085 29.5C54.7085 26.6158 55.8543 23.8497 57.8937 21.8102C59.9332 19.7708 62.6993 18.625 65.5835 18.625ZM65.5835 25.875C64.6221 25.875 63.7001 26.2569 63.0202 26.9367C62.3404 27.6166 61.9585 28.5386 61.9585 29.5C61.9585 30.4614 62.3404 31.3834 63.0202 32.0633C63.7001 32.7431 64.6221 33.125 65.5835 33.125C66.5449 33.125 67.4669 32.7431 68.1468 32.0633C68.8266 31.3834 69.2085 30.4614 69.2085 29.5C69.2085 28.5386 68.8266 27.6166 68.1468 26.9367C67.4669 26.2569 66.5449 25.875 65.5835 25.875ZM40.2085 7.75C43.0927 7.75 45.8588 8.89576 47.8983 10.9352C49.9377 12.9747 51.0835 15.7408 51.0835 18.625C51.0835 21.5092 49.9377 24.2753 47.8983 26.3148C45.8588 28.3542 43.0927 29.5 40.2085 29.5C37.3243 29.5 34.5582 28.3542 32.5187 26.3148C30.4793 24.2753 29.3335 21.5092 29.3335 18.625C29.3335 15.7408 30.4793 12.9747 32.5187 10.9352C34.5582 8.89576 37.3243 7.75 40.2085 7.75V7.75ZM40.2085 15C39.2471 15 38.3251 15.3819 37.6452 16.0617C36.9654 16.7416 36.5835 17.6636 36.5835 18.625C36.5835 19.5864 36.9654 20.5084 37.6452 21.1883C38.3251 21.8681 39.2471 22.25 40.2085 22.25C41.1699 22.25 42.0919 21.8681 42.7718 21.1883C43.4516 20.5084 43.8335 19.5864 43.8335 18.625C43.8335 17.6636 43.4516 16.7416 42.7718 16.0617C42.0919 15.3819 41.1699 15 40.2085 15V15Z" fill="white"/>
</svg>
