<svg width="88" height="88" viewBox="0 0 88 88" fill="none" xmlns="http://www.w3.org/2000/svg">
<path d="M79.3656 32.0741C83.8968 27.5428 81.8306 22.2503 79.3656 19.6766L68.4906 8.80157C63.9231 4.27032 58.6668 6.33657 56.0931 8.80157L49.9306 15.0003H40.5418C33.6543 15.0003 29.6668 18.6253 27.6368 22.7941L11.5418 38.8891V53.3891L8.96808 55.9266C4.43683 60.4941 6.50308 65.7503 8.96808 68.3241L19.8431 79.1991C21.8006 81.1566 23.9031 81.8816 25.8968 81.8816C28.4706 81.8816 30.8268 80.6128 32.2406 79.1991L42.0281 69.3753H55.0418C61.2043 69.3753 64.3218 65.5328 65.4456 61.7628C69.5418 60.6753 71.7893 57.5578 72.6956 54.5128C78.3143 53.0628 80.4168 47.7341 80.4168 44.0003V33.1253H78.2781L79.3656 32.0741ZM73.1668 44.0003C73.1668 45.6316 72.4781 47.6253 69.5418 47.6253H65.9168V51.2503C65.9168 52.8816 65.2281 54.8753 62.2918 54.8753H58.6668V58.5003C58.6668 60.1316 57.9781 62.1253 55.0418 62.1253H39.0556L27.1656 74.0153C26.0418 75.0666 25.3893 74.4503 24.9906 74.0516L14.1518 63.2491C13.1006 62.1253 13.7168 61.4728 14.1156 61.0741L18.7918 56.3616V41.8616L26.0418 34.6116V40.3753C26.0418 44.7616 28.9418 51.2503 36.9168 51.2503C44.8918 51.2503 47.7918 44.7616 47.7918 40.3753H73.1668V44.0003ZM74.2181 26.9266L68.0556 33.1253H40.5418V40.3753C40.5418 42.0066 39.8531 44.0003 36.9168 44.0003C33.9806 44.0003 33.2918 42.0066 33.2918 40.3753V29.5003C33.2918 27.8328 33.9081 22.2503 40.5418 22.2503H52.9031L61.1681 13.9853C62.2918 12.9341 62.9443 13.5503 63.3431 13.9491L74.1818 24.7516C75.2331 25.8753 74.6168 26.5278 74.2181 26.9266V26.9266Z" fill="white"/>
</svg>
