<svg width="87" height="88" viewBox="0 0 87 88" fill="none" xmlns="http://www.w3.org/2000/svg">
<path fill-rule="evenodd" clip-rule="evenodd" d="M9.51562 0.5C6.99192 0.5 4.57159 1.50254 2.78706 3.28706C1.00254 5.07159 0 7.49192 0 10.0156L0 77.9844C0 83.237 4.263 87.5 9.51562 87.5H77.4844C80.0081 87.5 82.4284 86.4975 84.2129 84.7129C85.9975 82.9284 87 80.5081 87 77.9844V10.0156C87 7.49192 85.9975 5.07159 84.2129 3.28706C82.4284 1.50254 80.0081 0.5 77.4844 0.5H9.51562ZM8.15625 10.0156C8.15625 9.6551 8.29947 9.30933 8.5544 9.0544C8.80933 8.79947 9.1551 8.65625 9.51562 8.65625H77.4844C77.8449 8.65625 78.1907 8.79947 78.4456 9.0544C78.7005 9.30933 78.8438 9.6551 78.8438 10.0156V77.9844C78.8438 78.3449 78.7005 78.6907 78.4456 78.9456C78.1907 79.2005 77.8449 79.3438 77.4844 79.3438H9.51562C9.1551 79.3438 8.80933 79.2005 8.5544 78.9456C8.29947 78.6907 8.15625 78.3449 8.15625 77.9844V10.0156ZM63.8906 16.8125C62.809 16.8125 61.7718 17.2422 61.007 18.007C60.2422 18.7718 59.8125 19.809 59.8125 20.8906V61.6719C59.8125 62.7535 60.2422 63.7907 61.007 64.5555C61.7718 65.3203 62.809 65.75 63.8906 65.75C64.9722 65.75 66.0095 65.3203 66.7743 64.5555C67.5391 63.7907 67.9687 62.7535 67.9688 61.6719V20.8906C67.9687 19.809 67.5391 18.7718 66.7743 18.007C66.0095 17.2422 64.9722 16.8125 63.8906 16.8125V16.8125ZM19.0312 20.8906C19.0312 19.809 19.4609 18.7718 20.2257 18.007C20.9905 17.2422 22.0278 16.8125 23.1094 16.8125C24.191 16.8125 25.2282 17.2422 25.993 18.007C26.7578 18.7718 27.1875 19.809 27.1875 20.8906V50.7969C27.1875 51.8785 26.7578 52.9157 25.993 53.6805C25.2282 54.4453 24.191 54.875 23.1094 54.875C22.0278 54.875 20.9905 54.4453 20.2257 53.6805C19.4609 52.9157 19.0312 51.8785 19.0312 50.7969V20.8906ZM43.5 16.8125C42.4184 16.8125 41.3811 17.2422 40.6163 18.007C39.8515 18.7718 39.4219 19.809 39.4219 20.8906V39.9219C39.4219 41.0035 39.8515 42.0407 40.6163 42.8055C41.3811 43.5703 42.4184 44 43.5 44C44.5816 44 45.6189 43.5703 46.3837 42.8055C47.1485 42.0407 47.5781 41.0035 47.5781 39.9219V20.8906C47.5781 19.809 47.1485 18.7718 46.3837 18.007C45.6189 17.2422 44.5816 16.8125 43.5 16.8125Z" fill="white"/>
</svg>
